<svg xmlns="http://www.w3.org/2000/svg" viewBox="0 0 200 200" width="200pt" height="200pt">
    <g clip-path="url(#_clipPath_3SjqUhBaI24KF7aMwre22hKXOS0OAjAc)">

        <g style="isolation:isolate">
            <path class="first_program" d="M 76.882 26.619 L 143.689 26.619 C 145.147 26.619 146.331 27.803 146.331 29.261 L 146.331 53.581 C 146.331 55.039 145.147 56.223 143.689 56.223 L 76.882 56.223 C 75.424 56.223 74.24 55.039 74.24 53.581 L 74.24 29.261 C 74.24 27.803 75.424 26.619 76.882 26.619 Z" style="stroke:none;stroke-miterlimit:10;" />
            <line class="first_line" x1="110.285" y1="56.223" x2="110.285" y2="77.369" vector-effect="non-scaling-stroke" stroke-width="1" stroke="rgb(244,243,243)" stroke-linejoin="miter" stroke-linecap="square" stroke-miterlimit="3" />
            <path class="conditional_block" d=" M 108.445 121.692 L 100.581 111.983 L 92.717 102.273 C 91.701 101.018 91.701 98.982 92.717 97.727 L 100.581 88.017 L 108.445 78.308 C 109.461 77.053 111.11 77.053 112.126 78.308 L 119.99 88.017 L 127.854 97.727 C 128.87 98.982 128.87 101.018 127.854 102.273 L 119.99 111.983 L 112.126 121.692 C 111.11 122.947 109.461 122.947 108.445 121.692 Z " fill="rgb(244,243,243)" />
            <path class="loop_path" d=" M 74.24 40.854 L 59.173 40.854 C 56.086 40.854 53.621 43.36 53.67 46.445 L 54.434 94.409 C 54.483 97.495 57.029 100 60.115 100 L 91.955 100" fill="none" vector-effect="non-scaling-stroke" stroke-width="1" stroke="rgb(244,243,243)" stroke-linejoin="miter" stroke-linecap="square" stroke-miterlimit="3" />
            <line class="second_line" x1="110.285" y1="122.631" x2="110.285" y2="143.777" vector-effect="non-scaling-stroke" stroke-width="1" stroke="rgb(244,243,243)" stroke-linejoin="miter" stroke-linecap="square" stroke-miterlimit="3" />
            <path class="second_program" d="M 76.882 143.777 L 143.689 143.777 C 145.147 143.777 146.331 144.961 146.331 146.419 L 146.331 170.739 C 146.331 172.197 145.147 173.381 143.689 173.381 L 76.882 173.381 C 75.424 173.381 74.24 172.197 74.24 170.739 L 74.24 146.419 C 74.24 144.961 75.424 143.777 76.882 143.777 Z" style="stroke:none;fill:#F4F3F3;stroke-miterlimit:10;" />
        </g>
    </g>
</svg>